<?xml version="1.0" encoding="utf-8"?>
<!-- Generator: Adobe Illustrator 25.1.0, SVG Export Plug-In . SVG Version: 6.00 Build 0)  -->
<svg version="1.1" id="Layer_2" xmlns="http://www.w3.org/2000/svg" xmlns:xlink="http://www.w3.org/1999/xlink" x="0px" y="0px"
	 viewBox="0 0 792 612" style="enable-background:new 0 0 792 612;" xml:space="preserve">
<style type="text/css">
	.st0{stroke:#FFFFFF;stroke-miterlimit:10;}
</style>
<polygon class="st0" points="257.34,401.73 349.02,217.98 440.11,401.73 407.6,401.73 348.73,284.82 305.14,372.56 356.24,372.05 
	370.69,400.69 "/>
<path class="st0" d="M495.08,277.6h32.26c-3.1-8.22-9.8-22.63-23.74-35.61c-3.71-3.45-13.85-12.33-29.42-18.58
	c0,0-5.41-2.17-10.84-3.61c-26.21-6.95-66.18,9.36-70.97,11.35c4.39,8.86,8.77,17.72,13.16,26.58c7.74-3.3,15.48-6.59,23.23-9.89
	c3.26-1.45,9.57-3.72,17.68-3.27c5.86,0.33,10.49,1.96,13.42,3.27c2.8,0.48,7.4,1.65,12.13,4.86c3,2.04,5.14,4.28,6.58,6.06
	c2.76,1.51,7,4.29,10.84,9.03C492.35,271.43,494.07,275,495.08,277.6z"/>
<path class="st0" d="M495.85,339.27c-4.03,2.69-46.22,2.63-49.55,0c-13.14-10.37-14.29-26.55-14.45-29.42
	c-25.46,0.02,50.97-1.22,76.39,0.26c3.89,0.23,6.88,0.54,10.32,0.55c1.79,0,3.7-0.07,5.94-0.29c6.19-0.6,7.97-1.6,9.55-0.52
	c4.62,3.17,0.06,19.18-5.68,31.74c-11.97,26.21-38.59,58.18-54.71,52.65c-3.2-1.1-9.9-5.23-12.65-26.06L495.85,339.27z"/>
<path class="st0" d="M460.76,469.85"/>
</svg>
